<svg width="28" height="28" viewBox="0 0 28 28" fill="none" xmlns="http://www.w3.org/2000/svg">
<path fill-rule="evenodd" clip-rule="evenodd" d="M5.20854 18.0419C6.30251 16.9479 7.78624 16.3333 9.33333 16.3333H18.6667C20.2138 16.3333 21.6975 16.9479 22.7915 18.0419C23.8854 19.1358 24.5 20.6195 24.5 22.1666V24.5C24.5 25.1443 23.9777 25.6666 23.3333 25.6666C22.689 25.6666 22.1667 25.1443 22.1667 24.5V22.1666C22.1667 21.2384 21.7979 20.3482 21.1415 19.6918C20.4852 19.0354 19.5949 18.6666 18.6667 18.6666H9.33333C8.40508 18.6666 7.51484 19.0354 6.85846 19.6918C6.20208 20.3482 5.83333 21.2384 5.83333 22.1666V24.5C5.83333 25.1443 5.311 25.6666 4.66667 25.6666C4.02233 25.6666 3.5 25.1443 3.5 24.5V22.1666C3.5 20.6195 4.11458 19.1358 5.20854 18.0419Z" fill="white"/>
<path fill-rule="evenodd" clip-rule="evenodd" d="M14.0003 4.66665C12.0673 4.66665 10.5003 6.23365 10.5003 8.16665C10.5003 10.0996 12.0673 11.6666 14.0003 11.6666C15.9333 11.6666 17.5003 10.0996 17.5003 8.16665C17.5003 6.23365 15.9333 4.66665 14.0003 4.66665ZM8.16699 8.16665C8.16699 4.94499 10.7787 2.33331 14.0003 2.33331C17.222 2.33331 19.8337 4.94499 19.8337 8.16665C19.8337 11.3883 17.222 14 14.0003 14C10.7787 14 8.16699 11.3883 8.16699 8.16665Z" fill="white"/>
</svg>
