<svg width="40" height="40" viewBox="0 0 40 40" fill="none" xmlns="http://www.w3.org/2000/svg">
<path fill-rule="evenodd" clip-rule="evenodd" d="M20 3.63636C10.9626 3.63636 3.63636 10.9626 3.63636 20C3.63636 29.0374 10.9626 36.3636 20 36.3636C29.0374 36.3636 36.3636 29.0374 36.3636 20C36.3636 10.9626 29.0374 3.63636 20 3.63636ZM0 20C0 8.9543 8.9543 0 20 0C31.0457 0 40 8.9543 40 20C40 31.0457 31.0457 40 20 40C8.9543 40 0 31.0457 0 20ZM19.9998 10.9091C21.004 10.9091 21.818 11.7231 21.818 12.7273V18.1818H27.2728C28.277 18.1818 29.091 18.9958 29.091 20C29.091 21.0042 28.277 21.8182 27.2728 21.8182H21.818V27.2727C21.818 28.2769 21.004 29.0909 19.9998 29.0909C18.9957 29.0909 18.1816 28.2769 18.1816 27.2727V21.8182H12.7274C11.7232 21.8182 10.9092 21.0042 10.9092 20C10.9092 18.9958 11.7232 18.1818 12.7274 18.1818H18.1816V12.7273C18.1816 11.7231 18.9957 10.9091 19.9998 10.9091Z" fill="white"/>
</svg>
