<svg width="32" height="29" viewBox="0 0 32 29" fill="none" xmlns="http://www.w3.org/2000/svg">
<path fill-rule="evenodd" clip-rule="evenodd" d="M1.95262 19.5235C3.20286 18.1638 4.89856 17.4 6.66667 17.4H16C17.7681 17.4 19.4638 18.1638 20.714 19.5235C21.9643 20.8831 22.6667 22.7272 22.6667 24.65V27.55C22.6667 28.3508 22.0697 29 21.3333 29C20.597 29 20 28.3508 20 27.55V24.65C20 23.4963 19.5786 22.3899 18.8284 21.5741C18.0783 20.7583 17.0609 20.3 16 20.3H6.66667C5.6058 20.3 4.58839 20.7583 3.83824 21.5741C3.08809 22.3899 2.66667 23.4963 2.66667 24.65V27.55C2.66667 28.3508 2.06971 29 1.33333 29C0.596954 29 0 28.3508 0 27.55V24.65C0 22.7272 0.702379 20.8831 1.95262 19.5235Z" fill="white"/>
<path fill-rule="evenodd" clip-rule="evenodd" d="M11.3333 2.9C9.1242 2.9 7.33333 4.84756 7.33333 7.25C7.33333 9.65244 9.1242 11.6 11.3333 11.6C13.5425 11.6 15.3333 9.65244 15.3333 7.25C15.3333 4.84756 13.5425 2.9 11.3333 2.9ZM4.66667 7.25C4.66667 3.24594 7.65144 0 11.3333 0C15.0152 0 18 3.24594 18 7.25C18 11.2541 15.0152 14.5 11.3333 14.5C7.65144 14.5 4.66667 11.2541 4.66667 7.25Z" fill="white"/>
<path fill-rule="evenodd" clip-rule="evenodd" d="M26.6667 7.25C27.403 7.25 28 7.89919 28 8.7V17.4C28 18.2008 27.403 18.85 26.6667 18.85C25.9303 18.85 25.3333 18.2008 25.3333 17.4V8.7C25.3333 7.89919 25.9303 7.25 26.6667 7.25Z" fill="white"/>
<path fill-rule="evenodd" clip-rule="evenodd" d="M21.3333 13.05C21.3333 12.2492 21.9303 11.6 22.6667 11.6H30.6667C31.403 11.6 32 12.2492 32 13.05C32 13.8508 31.403 14.5 30.6667 14.5H22.6667C21.9303 14.5 21.3333 13.8508 21.3333 13.05Z" fill="white"/>
</svg>
