<svg width="29" height="29" viewBox="0 0 29 29" fill="none" xmlns="http://www.w3.org/2000/svg">
<path fill-rule="evenodd" clip-rule="evenodd" d="M4.77351 5.27259C4.43533 5.27259 4.11101 5.41147 3.87188 5.65868C3.63276 5.90589 3.49842 6.24117 3.49842 6.59078V25.0453C3.49842 25.3949 3.63276 25.7302 3.87188 25.9774C4.11101 26.2246 4.43533 26.3635 4.77351 26.3635H22.6248C22.9629 26.3635 23.2872 26.2246 23.5264 25.9774C23.7655 25.7302 23.8998 25.3949 23.8998 25.0453V18.0062C23.8998 17.2782 24.4707 16.6881 25.1749 16.6881C25.8791 16.6881 26.45 17.2782 26.45 18.0062V25.0453C26.45 26.0941 26.047 27.1 25.3296 27.8416C24.6122 28.5832 23.6393 28.9999 22.6248 28.9999H4.77351C3.75898 28.9999 2.78601 28.5832 2.06864 27.8416C1.35126 27.1 0.948242 26.0941 0.948242 25.0453V6.59078C0.948242 5.54197 1.35126 4.53611 2.06864 3.79449C2.78601 3.05287 3.75898 2.63623 4.77351 2.63623H11.5825C12.2867 2.63623 12.8576 3.2264 12.8576 3.95441C12.8576 4.68242 12.2867 5.27259 11.5825 5.27259H4.77351Z" fill="white"/>
<path fill-rule="evenodd" clip-rule="evenodd" d="M21.723 0.386087C22.2209 -0.128696 23.0283 -0.128696 23.5262 0.386087L28.6266 5.65881C29.1245 6.1736 29.1245 7.00822 28.6266 7.523L15.8757 20.7048C15.6366 20.952 15.3122 21.0909 14.9741 21.0909H9.87372C9.16951 21.0909 8.59863 20.5007 8.59863 19.7727V14.5C8.59863 14.1504 8.73297 13.8151 8.9721 13.5679L21.723 0.386087ZM11.1488 15.046V18.4545H14.4459L25.9217 6.59091L22.6246 3.18237L11.1488 15.046Z" fill="white"/>
</svg>
