<svg width="42" height="43" viewBox="0 0 42 43" fill="none" xmlns="http://www.w3.org/2000/svg">
<path d="M34.7924 42.34C34.6083 42.34 34.4242 42.34 34.2402 42.34C28.3494 41.6036 22.4586 39.5787 17.4883 36.4492C12.8861 33.5038 8.83617 29.4539 5.89078 24.8517C2.57722 19.8814 0.552261 13.9906 0 8.09982C0 6.62713 0.368174 5.15443 1.28861 4.04991C2.20904 2.94539 3.49765 2.20904 4.97035 2.02496C5.15443 2.02496 5.33852 2.02496 5.52261 2.02496H11.0452C13.8065 2.02496 16.1996 4.04991 16.5678 6.81121C16.7519 8.468 17.1201 10.1248 17.6723 11.5975C18.4087 13.6224 17.8564 15.8315 16.3837 17.4883L15.0951 18.7769C17.3042 22.0904 20.0655 25.0358 23.5631 27.2449L24.8517 25.9563C26.3244 24.4836 28.7176 23.9313 30.7425 24.6676C32.2152 25.2199 33.872 25.5881 35.5288 25.7722C38.2901 26.1403 40.315 28.5335 40.315 31.2948V36.8174C40.315 38.2901 39.7628 39.7628 38.6582 40.6832C37.5537 41.6036 36.2651 42.34 34.7924 42.34ZM11.0452 5.70669H5.52261C4.97035 5.70669 4.41808 6.07487 4.04991 6.44304C3.86582 6.81121 3.68174 7.17939 3.68174 7.73165C4.234 13.0702 6.07487 18.2246 9.02026 22.8268C11.7816 27.0608 15.2792 30.7425 19.5132 33.3197C24.1154 36.2651 29.2698 38.106 34.6083 38.6582C35.3447 38.6582 35.7129 38.4742 36.081 38.106C36.4492 37.7378 36.6333 37.3696 36.6333 36.8174V31.2948C36.6333 30.3743 35.8969 29.638 34.9765 29.4539C33.1356 29.2698 31.2948 28.7176 29.4539 27.9812C28.7176 27.7971 27.9812 27.7971 27.4289 28.3494L25.0358 30.7425C24.4836 31.2948 23.5631 31.4789 22.8268 31.1107C17.8564 28.3494 13.8065 24.2995 11.0452 19.3291C10.8611 18.5928 11.0452 17.6723 11.5975 17.1201L13.9906 14.727C14.3588 14.3588 14.5429 13.4383 14.3588 12.8861C13.6224 11.0452 13.2543 9.20434 12.8861 7.36348C12.8861 6.44304 11.9656 5.70669 11.0452 5.70669ZM32.9515 18.5928C32.0311 18.5928 31.2948 18.0405 31.1107 17.1201C30.5584 14.1747 28.1653 11.9656 25.2199 11.2293C24.2995 11.0452 23.5631 10.1248 23.7472 9.02026C23.9313 8.09982 24.8517 7.36348 25.9562 7.54756C30.3743 8.468 33.872 11.7816 34.6083 16.1996C34.7924 17.1201 34.2402 18.2246 33.1356 18.4087C33.1356 18.4087 33.1356 18.5928 32.9515 18.5928ZM40.315 18.4087C39.3946 18.4087 38.6582 17.6723 38.4742 16.7519C37.7378 9.94069 32.3993 4.60217 25.404 3.68174C24.4836 3.49765 23.7472 2.57722 23.7472 1.65678C23.7472 0.736348 24.8517 0 25.7722 0C34.4242 0.920434 41.0514 7.54756 41.9718 16.1996C42.1559 17.1201 41.4195 18.0405 40.315 18.2246C40.4991 18.4087 40.315 18.4087 40.315 18.4087Z" fill="white"/>
</svg>
